# xmcd CD database file
#
# Track frame offsets:
#	187
#	17159
#	33107
#	55869
#	75212
#	96777
#	115109
#	131312
#	153554
#	171999
#
# Disc length: 2537 seconds
#
# Revision: 2
# Processed by: cddbd v1.5PL3 Copyright (c) Steve Scherf et al.
# Submitted via: CDex 1.51
#
DISCID=6c09e70a
DTITLE=Bee Gees - Greatest - Disc 1
DYEAR=1979
DGENRE=Pop
TTITLE0=Jive Talkin' (Saturday Night Fever)
TTITLE1=Night Fever (Saturday Night Fever)
TTITLE2=Tragedy
TTITLE3=You Should Be Dancing (Saturday Night Fever)
TTITLE4=Stayin' Alive (Saturday Night Fever)
TTITLE5=How Deep Is Your Love (Saturday Night Fever)
TTITLE6=Love So Right
TTITLE7=Too Much Heaven
TTITLE8=(Our Love) Don't Throw It All Away
TTITLE9=Fanny (Be Tender With My Love)
EXTD=YEAR: 1979
EXTT0=
EXTT1=
EXTT2=
EXTT3=
EXTT4=
EXTT5=
EXTT6=
EXTT7=
EXTT8=
EXTT9=
PLAYORDER=
